<svg width="513" height="513" viewBox="0 0 513 513" fill="none" xmlns="http://www.w3.org/2000/svg">
<path d="M322.285 235.423L366.121 220.441C370.837 219.423 387.375 217.68 394.42 240.417C398.661 254.103 403.169 268.157 407.597 281.823C413.945 269.484 424.761 249.785 435.207 239.31C446.315 228.173 460.185 217.339 475.167 224.552C490.149 231.765 495.928 260.364 465.825 271.783C462.462 267.524 460.669 264.694 459.165 262.32C457.186 259.198 455.706 256.863 451.811 253.098C442.728 256.991 426.144 273.358 414.961 300.07C414.706 300.763 414.449 301.442 414.188 302.106C420.039 320.087 425.404 336.615 429.377 349.728C434.18 365.575 441.862 371.091 451.295 374.143C456.544 375.841 462.365 374.775 467.788 373.781C470.162 373.346 472.46 372.925 474.6 372.756V385.796L446.024 393.841C438.81 395.691 422.053 397.837 412.731 391.622C399.194 382.598 389.032 356.683 384.184 331.393C384.16 331.437 384.136 331.481 384.112 331.525C374.32 349.271 356.318 381.9 339.443 390.12C322.131 398.555 304.297 389.648 302.077 376.885C299.858 364.123 304.232 351.848 323.098 345.744L337.548 364.713C354.239 352.751 368.621 331.143 376.945 312.832C377.074 312.547 377.205 312.265 377.337 311.985C375.669 307.289 373.924 302.302 372.162 297.268C364.916 276.563 357.395 255.072 353.914 249.85C347.116 248.323 331.996 247.63 322.285 247.63V235.423Z" fill="#32C256"/>
<path d="M246.241 151.885C222.795 127.295 188.912 115 144.592 115H24.5V153.365H247.643C247.181 152.868 246.713 152.374 246.241 151.885Z" fill="black"/>
<path d="M249.433 155.335L142.864 398.074H144.592C188.912 398.074 222.795 385.779 246.241 361.189C269.974 336.598 281.84 301.715 281.84 256.537C281.84 213.432 271.038 179.698 249.433 155.335Z" fill="black"/>
<path d="M74.1269 398.074L156.162 207.157H24.5V398.074H74.1269Z" fill="black"/>
</svg>
