<svg width="483" height="132" viewBox="0 0 483 132" fill="none" xmlns="http://www.w3.org/2000/svg">
<path d="M211.938 41.8183C217.281 41.8183 221.832 42.6758 225.592 44.3909C229.352 46.106 232.222 48.5797 234.201 51.812C236.18 55.0442 237.169 58.9691 237.169 63.5867C237.169 68.2042 236.18 72.1291 234.201 75.3614C232.222 78.5936 229.352 81.0673 225.592 82.7824C221.832 84.4975 217.281 85.355 211.938 85.355H198.976V107.123H181.957V41.8183H211.938ZM209.266 72.5909C212.828 72.5909 215.5 71.8652 217.281 70.414C219.128 68.8968 220.051 66.621 220.051 63.5867C220.051 60.5523 219.128 58.3095 217.281 56.8583C215.5 55.3411 212.828 54.5825 209.266 54.5825H198.976V72.5909H209.266Z" fill="white"/>
<path d="M244.092 107.123V41.8183H294.951V54.9783H261.111V68.2372H288.025V80.6056H261.111V93.9634H296.238V107.123H244.092Z" fill="white"/>
<path d="M333.725 41.8183C341.508 41.8183 347.544 43.6653 351.832 47.3593C356.186 50.9874 358.362 55.8358 358.362 61.9046C358.362 68.567 356.219 73.6463 351.931 77.1424C347.643 80.6385 341.607 82.3866 333.824 82.3866L332.24 83.2771H319.278V107.123H302.556V41.8183H333.725ZM331.35 71.2056C334.648 71.2056 337.122 70.5459 338.771 69.2266C340.42 67.9074 341.245 65.7965 341.245 62.894C341.245 60.0576 340.42 57.9797 338.771 56.6604C337.122 55.3411 334.648 54.6814 331.35 54.6814H319.278V71.2056H331.35ZM341.344 74.7677L362.221 107.123H343.421L326.699 78.5277L341.344 74.7677Z" fill="white"/>
<path d="M420.96 41.8183V54.9783H399.687V107.123H382.668V54.9783H361.295V41.8183H420.96Z" fill="white"/>
<path d="M451.003 40.8288C457.072 40.8288 462.415 41.7853 467.033 43.6983C471.716 45.5453 475.773 48.2828 479.203 51.9109L470.991 62.894C468.154 59.9256 465.087 57.7158 461.788 56.2646C458.556 54.7474 454.862 53.9888 450.706 53.9888C448.266 53.9888 446.287 54.2527 444.77 54.7804C443.252 55.3081 442.164 56.0337 441.504 56.9572C440.845 57.8807 440.515 58.9361 440.515 60.1235C440.515 61.5088 441.142 62.6961 442.395 63.6856C443.714 64.6091 445.825 65.4007 448.727 66.0603L459.711 68.534C466.241 70.0512 471.024 72.261 474.058 75.1635C477.092 78.0659 478.61 81.9249 478.61 86.7403C478.61 91.3578 477.422 95.2827 475.047 98.515C472.673 101.681 469.407 104.089 465.252 105.738C461.096 107.321 456.346 108.113 451.003 108.113C446.65 108.113 442.494 107.651 438.536 106.728C434.578 105.738 431.016 104.353 427.85 102.572C424.683 100.791 422.012 98.7459 419.835 96.4371L428.048 85.0582C429.697 86.9712 431.709 88.6862 434.083 90.2034C436.524 91.6547 439.163 92.809 441.999 93.6666C444.902 94.5241 447.837 94.9529 450.805 94.9529C453.114 94.9529 455.027 94.722 456.544 94.2603C458.127 93.7985 459.282 93.1059 460.007 92.1824C460.733 91.2589 461.096 90.1705 461.096 88.9171C461.096 87.5319 460.601 86.3775 459.612 85.454C458.622 84.4645 456.742 83.6399 453.972 82.9803L441.9 80.3087C438.206 79.4512 434.908 78.3298 432.005 76.9445C429.169 75.4933 426.926 73.5803 425.277 71.2056C423.628 68.7649 422.803 65.7305 422.803 62.1025C422.803 58.0126 423.925 54.3846 426.168 51.2183C428.41 47.986 431.643 45.4464 435.864 43.5993C440.086 41.7523 445.132 40.8288 451.003 40.8288Z" fill="white"/>
<path d="M112.4 45.7275L128.945 40.0724C130.726 39.6884 136.968 39.0304 139.627 47.6126C141.228 52.7782 142.929 58.083 144.6 63.2414C146.997 58.584 151.079 51.1483 155.022 47.1948C159.215 42.9912 164.45 38.9015 170.105 41.6243C175.76 44.347 177.941 55.1417 166.579 59.4516C165.31 57.8439 164.633 56.776 164.065 55.8799C163.318 54.7013 162.76 53.82 161.289 52.3991C157.861 53.8683 151.601 60.046 147.38 70.1285C147.284 70.3903 147.187 70.6465 147.088 70.8971C149.297 77.6839 151.322 83.9226 152.822 88.8723C154.634 94.8538 157.534 96.9358 161.095 98.0877C163.076 98.7287 165.273 98.3261 167.32 97.951C168.216 97.7868 169.083 97.6279 169.891 97.5641V102.486L159.105 105.523C156.382 106.221 150.057 107.031 146.538 104.685C141.429 101.279 137.593 91.4974 135.764 81.9516C135.754 81.9681 135.745 81.9847 135.736 82.0012C132.04 88.6996 125.245 101.015 118.876 104.118C112.341 107.302 105.61 103.94 104.772 99.1228C103.934 94.3056 105.585 89.6722 112.706 87.3684L118.161 94.5284C124.461 90.0132 129.889 81.8574 133.031 74.9458C133.08 74.8382 133.129 74.7317 133.179 74.6261C132.55 72.8536 131.891 70.971 131.226 69.0709C128.491 61.2561 125.652 53.1439 124.338 51.173C121.772 50.5968 116.065 50.335 112.4 50.335V45.7275Z" fill="#32C256"/>
<path d="M83.6967 14.1963C74.8467 4.91462 62.0575 0.273804 45.329 0.273804H3.05176e-05V14.7546H84.2258C84.0512 14.567 83.8748 14.3808 83.6967 14.1963Z" fill="white"/>
<path d="M84.9013 15.4982L44.6768 107.121H45.329C62.0575 107.121 74.8467 102.48 83.6967 93.1981C92.6545 83.9165 97.1335 70.7495 97.1335 53.6972C97.1335 37.4272 93.0561 24.6942 84.9013 15.4982Z" fill="white"/>
<path d="M18.7318 107.121L49.696 35.0585H3.05176e-05V107.121H18.7318Z" fill="white"/>
</svg>
